<?xml version="1.0" standalone="no"?>
<!DOCTYPE svg PUBLIC "-//W3C//DTD SVG 20010904//EN"
 "http://www.w3.org/TR/2001/REC-SVG-20010904/DTD/svg10.dtd">
<svg version="1.0" xmlns="http://www.w3.org/2000/svg"
 width="500.000000pt" height="500.000000pt" viewBox="0 0 500.000000 500.000000"
 preserveAspectRatio="xMidYMid meet">
<metadata>
Created by potrace 1.14, written by Peter Selinger 2001-2017
</metadata>
<g transform="translate(0.000000,500.000000) scale(0.100000,-0.100000)"
fill="#000000" stroke="none">
<path d="M0 2500 l0 -2500 2500 0 2500 0 0 2500 0 2500 -2500 0 -2500 0 0
-2500z m1477 1175 c36 -14 41 -21 47 -57 5 -30 1 -58 -16 -104 -27 -75 -18
-94 43 -94 49 0 59 18 70 121 9 90 27 123 77 141 49 17 645 16 712 -2 25 -6
57 -14 73 -17 27 -5 38 -35 17 -48 -5 -3 -10 -14 -10 -25 0 -19 -111 -149
-254 -300 -200 -210 -286 -317 -286 -357 0 -11 11 -43 25 -71 14 -29 25 -54
25 -57 0 -5 302 -612 348 -700 74 -141 172 -411 172 -474 0 -54 -33 -87 -98
-98 -26 -4 -191 -8 -367 -8 -292 0 -325 2 -372 19 l-53 20 0 82 c0 56 -4 85
-13 93 -21 17 -74 25 -81 12 -4 -6 -12 -8 -18 -5 -6 4 -8 -1 -5 -12 13 -48 18
-100 12 -134 -6 -35 -10 -39 -58 -53 -72 -22 -374 -31 -562 -18 -185 14 -305
32 -305 46 0 7 21 49 46 96 l47 84 0 855 1 855 -47 84 c-26 46 -47 90 -47 97
0 9 11 14 29 14 15 0 41 5 57 10 56 19 241 29 495 25 206 -3 264 -7 296 -20z
m2000 0 c54 -25 62 -64 31 -152 -19 -53 -20 -65 -9 -86 9 -16 25 -27 45 -30
58 -8 64 0 76 118 17 162 26 167 340 166 124 0 270 -5 325 -11 55 -6 128 -14
163 -17 34 -3 62 -10 62 -15 0 -19 -163 -213 -365 -433 -184 -200 -225 -253
-225 -286 0 -17 13 -49 29 -72 15 -23 38 -62 49 -87 19 -42 48 -104 209 -440
145 -303 277 -632 288 -716 l7 -50 -73 -12 c-191 -33 -720 -35 -751 -4 -7 7
-21 12 -31 12 -19 0 -20 5 -13 93 6 92 6 94 -18 105 -24 11 -61 7 -82 -9 -6
-5 -14 -5 -19 -1 -4 4 -5 -2 -2 -13 13 -50 18 -100 12 -134 -5 -31 -13 -40
-48 -56 -39 -18 -67 -20 -412 -20 -354 0 -372 1 -420 22 -48 20 -50 22 -49 61
0 24 14 65 33 102 34 66 33 56 29 255 -2 80 7 707 17 1206 6 276 5 289 -36
349 -9 14 -24 49 -32 78 -15 49 -15 53 1 58 9 3 26 10 37 16 35 20 174 26 485
24 273 -2 309 -4 347 -21z"/>
</g>
</svg>
